<?xml version="1.0" encoding="UTF-8"?>
<svg id="Layer_1" data-name="Layer 1" xmlns="http://www.w3.org/2000/svg" viewBox="0 0 110 110">
  <defs>
    <style>
      .cls-1 {
        fill: #5c2d00;
      }

      .cls-2 {
        fill: #fff;
      }

      .cls-3 {
        fill: #ecceae;
      }

      .cls-4 {
        fill: #f9e3cb;
      }

      .cls-5 {
        fill: #f3dbc0;
      }

      .cls-6 {
        fill: #e2be99;
      }

      .cls-7 {
        fill: #c08450;
      }

      .cls-8 {
        fill: #ba7741;
      }

      .cls-9 {
        fill: #7a3f1a;
      }

      .cls-10 {
        fill: #b6703a;
      }

      .cls-11 {
        fill: #b8743e;
      }

      .cls-12 {
        fill: #743915;
      }
    </style>
  </defs>
  <rect class="cls-1" width="110" height="110"/>
  <circle class="cls-2" cx="55" cy="55" r="52.84"/>
  <g>
    <g>
      <path class="cls-12" d="M29.84,83.73c0-1.73-.03-3.36,0-4.99.01-1.09-.27-1.97-1.5-2.3l.07-.23c.95,0,1.9-.04,2.84.03.16.01.31.47.43.73,1.06,2.29,2.12,4.59,3.18,6.88.13.29.32.55.59,1,.96-2.23,1.87-4.28,2.74-6.34.99-2.36.97-2.37,3.58-2.34.18,0,.37.02.63.12-1.43.42-1.47,1.52-1.48,2.63-.01,1.9-.01,3.79-.02,5.69,0,1.07.03,2.11,1.36,2.5h-4.61c1.5-.45,1.42-1.66,1.43-2.82.01-1.5.02-3,.02-4.49,0-.35-.04-.69-.25-1.07-.15.27-.31.54-.43.82-1,2.32-1.99,4.64-3.01,6.95-.12.28-.38.5-.57.75-.24-.25-.56-.46-.7-.75-1.13-2.36-2.23-4.75-3.33-7.11-.13.04-.24.06-.24.08.01,2.06-.03,4.12.11,6.17.04.52.68,1,1.02,1.45h-3.25c1.75-.56,1.34-2.02,1.41-3.36Z"/>
      <path class="cls-12" d="M65.71,86.64c.26.13.46.23.65.32-.01.05-.02.09-.03.14h-3.65c0-1.95-1.12-3.37-2.16-4.77-.22-.3-.95-.23-1.7-.39.08,1.47.06,2.76.26,4.01.07.43.68.77,1.04,1.14h-4.43c1.51-.41,1.3-1.64,1.3-2.74.01-1.9,0-3.79-.01-5.69,0-1.01-.19-1.93-1.34-2.39,2.35.02,4.69-.47,6.95.44,1.01.4,1.61,1.17,1.63,2.29.02,1.16-.41,2.07-1.51,2.58-.14.07-.28.15-.38.21.59,1.04,1.11,2.08,1.75,3.04.43.65,1.04,1.18,1.63,1.79M58.9,77.03v4.53c1.18.15,2.21.04,2.8-.99.52-.91.57-1.95-.04-2.84-.63-.91-1.59-1.1-2.76-.7Z"/>
      <path class="cls-9" d="M72.37,87.19c-.71.05-1.35.16-1.97.09-1.96-.22-3.05-1.45-3.16-3.6-.08-1.66-.05-3.33-.06-4.99,0-1-.13-1.93-1.24-2.42h4.58c-1.72.52-1.35,1.95-1.38,3.19-.03,1.5-.04,3,.01,4.49.06,1.59.95,2.52,2.35,2.57,1.61.06,2.81-.81,2.91-2.37.13-1.99.07-3.99.03-5.99-.02-.9-.47-1.58-1.42-1.9h3.42c-1.19.47-1.3,1.45-1.31,2.47-.01,1.63.01,3.26-.04,4.89-.06,1.89-.88,2.95-2.74,3.56Z"/>
      <path class="cls-12" d="M50.43,79.05c.82,1.9,1.61,3.73,2.42,5.55.44,1,.84,2.04,2.01,2.51h-4.43c.81-.84.78-2.56-.05-3.4-.1-.1-.28-.18-.42-.19-1.06-.01-2.13-.02-3.19.02-.19,0-.48.15-.54.31-.25.61-.55,1.24-.59,1.88-.03.44.32.91.5,1.38h-3.25c2.32-1,2.51-3.12,3.28-4.84.81-1.82,1.47-3.71,2.22-5.55.09-.23.36-.39.55-.59.16.19.37.35.47.57.35.75.67,1.52,1.02,2.35M49.11,80.51c-.25-.56-.51-1.13-.83-1.85-.61,1.53-1.15,2.9-1.71,4.3h3.53c-.34-.84-.65-1.57-.99-2.45Z"/>
      <path class="cls-8" d="M33.68,96.84c0-1.64,0-3.19,0-4.81.94,0,1.81-.11,2.64.02,1.61.25,1.92,1.73.76,3.07.26.76.51,1.49.76,2.22-.11.08-.22.17-.34.25-.2-.21-.51-.38-.59-.63-.49-1.64-.67-1.78-2.52-1.57,0,.5.03,1.02-.02,1.53-.02.21-.22.4-.33.59-.12-.19-.24-.38-.37-.66M37.05,93.65c-.39-1.01-.88-1.17-2.58-.83v1.89c.43,0,.79.02,1.15,0,.63-.04,1.31-.01,1.43-1.05Z"/>
      <path class="cls-7" d="M64.29,94.88c.17.85.39,1.64.61,2.44-.09.08-.19.16-.28.25-.21-.2-.54-.36-.61-.6-.45-1.68-.58-1.79-2.48-1.57,0,.5.04,1.02-.02,1.53-.02.2-.24.38-.38.56-.13-.19-.29-.37-.37-.58-.06-.14-.01-.33-.01-.49,0-1.43,0-2.85,0-4.37.98,0,1.92-.13,2.8.03,1.36.25,1.69,1.6.73,2.81M63.15,92.72h-1.54v1.97c.49,0,.95.1,1.33-.03.43-.14.79-.48,1.17-.73-.26-.4-.53-.79-.97-1.21Z"/>
      <path class="cls-8" d="M29.93,95.66c-.79,1.73-1.95,2.18-4.35,1.73v-5.32c3.2-.5,4.83.84,4.35,3.58M27.25,96.89c1.47-.17,2.22-1.02,2.08-2.35-.13-1.31-.97-1.94-2.43-1.88-.52.02-.71.2-.69.71.03.93.05,1.86.02,2.78-.03.66.31.8,1.02.74Z"/>
      <path class="cls-8" d="M68.48,92.48c.15-.21.3-.34.45-.48.11.17.32.34.33.52.04.9.01,1.8.02,2.7.02,1.14.46,1.66,1.4,1.65.91,0,1.3-.46,1.33-1.6.03-.9,0-1.8.04-2.7,0-.19.24-.37.37-.55.1.18.29.36.29.54.02,1.06.06,2.13-.01,3.19-.08,1.16-.9,1.84-2.08,1.85-1.13.01-1.94-.62-2.05-1.75-.11-1.09-.07-2.19-.09-3.37Z"/>
      <path class="cls-7" d="M55.36,91.97c.49,0,.9-.03,1.29.02.17.02.31.24.47.37-.17.12-.32.31-.5.33-.39.05-.79.01-1.19.01-.36,0-.73,0-1.18,0v1.66c.58,0,1.2-.03,1.81.02.2.02.39.22.59.34-.19.13-.37.34-.56.36-.59.05-1.18.02-1.94.02,0,.69.03,1.3-.02,1.92-.01.17-.23.32-.36.47-.13-.16-.36-.31-.36-.47-.03-1.65-.02-3.29-.02-5.06.71,0,1.3,0,1.98,0Z"/>
      <path class="cls-8" d="M43.27,97.36c-.25-.06-.65-.21-.63-.29.31-1.84-.85-3.13-1.68-4.54-.06-.11-.1-.23-.16-.35q.67-.13,1.21.74c.29.47.59.94.9,1.42.97-.62.87-2.18,2.49-2.37-1.16,1.74-2.46,3.24-2.14,5.4Z"/>
      <path class="cls-7" d="M81.61,92.72c-.25-.15-.42-.3-.59-.45.15-.1.3-.28.45-.29,1.1-.03,2.2-.03,3.29,0,.16,0,.31.23.47.36-.16.12-.3.32-.48.35-.35.05-.72.02-1.24.02,0,1.36.02,2.64-.02,3.92,0,.29-.24.57-.37.86-.13-.29-.35-.58-.36-.88-.04-1.25-.02-2.51-.02-3.82-.47-.04-.76-.06-1.14-.08Z"/>
      <path class="cls-7" d="M77.51,93.56c0,1.15.01,2.21-.03,3.27,0,.23-.23.45-.36.68-.13-.22-.36-.44-.36-.66-.03-1.39-.03-2.78,0-4.17,0-.23.23-.45.35-.67.13.22.31.43.37.67.07.25.02.53.02.89Z"/>
    </g>
    <g>
      <path class="cls-10" d="M53.95,18c-.05-.57-.38-1.11.2-1.69.21-.21-.06-.88-.08-1.35-.02-.38,0-.77,0-1.42.22.37.3.51.45.78.05-.67.09-1.22.13-1.77.07,0,.14,0,.2,0,.05.24.11.47.19.83.09-.3.15-.49.23-.77.13.27.23.5.37.79.13-.3.23-.52.34-.75.11,0,.22,0,.34,0,.22,1.86.45,3.72.63,5.73-.27,2.86-.51,5.57-.74,8.28.07,0,.14.01.22.02.57-2.44,1.14-4.87,1.71-7.31.29-.54.58-1.07.88-1.62.1.14.19.25.27.37.48-.84.96-1.66,1.43-2.48.07.02.15.05.22.07-.08.33-.16.66-.24,1,.93-.77,1.86-1.54,2.78-2.31.09.08.18.16.27.23-.17.24-.33.48-.57.83.04.15.15.18.26.22.35-.09.69-.17,1.04-.26.01,0,0-.06,0-.09-.02.04-.06.07-.06.11,0,.02.03.06.08.19.14.31.24.51.34.72.34-.02.69-.05,1.03-.07-1.18.89-1.89,2.31-3.54,2.65-.27.19-.43.32-.59.45,0,0,0,0-.06.01-.71.58-1.35,1.16-2.03,1.77-.06.1-.08.17-.13.23-.02,0,0,0,.07-.02.1-.06.14-.11.25-.17.34-.15.62-.28.9-.41-.12.21-.25.43-.46.74-.45.95-.81,1.81-1.19,2.69-.02.02-.04.09-.08.13-.14.22-.23.4-.36.61-.02.08,0,.14,0,.19.04-.04.09-.08.18-.14.14-.14.24-.25.38-.36.09.05.14.09.15.18-.03.04-.06.13-.11.17-.35.55-.65,1.05-.99,1.58-.06.09-.08.16-.12.23-.02,0-.02.05-.02.05,0,0,.02-.07.08-.07.09-.06.13-.12.22-.2.27-.15.59-.22.69-.41.18-.33.23-.73.37-1.13.06-.1.07-.16.09-.23,0,0,0,0,.06.03.2-.08.34-.18.5-.34.15-.43.28-.79.48-1.33.09.45.14.7.19.95.06,0,.13.02.19.03.2-.51.4-1.02.6-1.53.28-.46.57-.92.85-1.39.07.03.15.07.22.1-.13.44-.26.88-.47,1.58,1.32-1.38,2.46-2.57,3.68-3.67-.33.7-.74,1.32-1.19,1.95-.03.05-.03.09-.02.13.03-.04.06-.08.15-.12.84-.59,1.61-1.17,2.38-1.75.6-.27,1.19-.55,1.79-.82.05.1.11.19.16.29-.37.31-.74.62-1.1.93l.08.15c1.09-.19,2.19-.37,3.28-.56.02.09.04.19.06.28-.25.12-.5.24-.83.41.81.09,1.55.18,2.29.26v.25c-.37.07-.73.13-1.31.24.62.13,1.02.22,1.64.36-.4.17-.6.27-.89.39.22.15.42.28.61.41-.02.09-.04.18-.07.27-.54-.1-1.09-.21-1.74-.37-.22-.08-.34-.11-.49-.15-.05-.01-.14-.02-.2-.08-.73-.02-1.41.02-2.06.05.35.31.63.57.92.82-1.34.06-2.69.12-4.19.19-.3.31-.45.61-.71,1.12-.02,0-.28.12-.57.24.1.24.18.44.27.64.11.14.22.28.33.42-.44.34-.93.72-1.55,1.13-.5.15-.87.27-1.3.41.21.18.32.27.43.36-.08-.07-.16-.13-.24-.2-.32.63-.64,1.25-.85,1.67.96-.2,2.29-.41,3.2-1.6.2.07.48.27.59.2,1.38-.88,3.05,0,4.43-.76.05-.03.13,0,.32.03-.36.22-.63.4-.9.57.02.07.03.13.05.2,1.02-.13,2.03-.27,3.19-.42-.15.25-.22.38-.26.44,1.17.21,2.35.41,3.81.67-.5.15-.73.21-.95.28-.01.06-.02.11-.03.17.54.13,1.07.26,1.65.48-.04.27-.13.45-.25.7.32.02.54.03.76.05.74.47,1.48.94,2.22,1.41.35.22.71.43,1.07.65-.11.12-.22.25-.34.37-.31-.15-.62-.29-.92-.43-.68.93.12,1.5.69,2.37-1.09-.42-1.91-.73-2.83-1.1-.15-.05-.2-.04-.24-.03.02.07.05.14.07.21-.1.06-.26.18-.29.16-.48-.4-.98-.78-1.41-1.24-.72-.77-1.71-1.15-2.91-1.06-.09,0-.2-.04-.27-.09-1.5-1.15-3.28-.7-4.95-.9-.7-.08-1.04.17-1.35.85,1.9.41,3.76.81,5.61,1.21-.09.07-.2.16-.26.2.97.41,1.96.83,3.01,1.36.09,1.04.74,1.07,1.42,1.06.12.03.24.06.4.21-.05,1.13-.94,1.17-1.62,1.37-.22.06-.55-.31-.85-.45-.17-.08-.38-.08-.56-.14-.61-.2-1.2-.43-1.81-.62-.3-.09-.63-.11-.94-.17-1.17-.27-2.34-.55-3.52-.79-.06-.01-.17.24-.29.43,2.16,1.38,4.28,2.74,6.47,4.14-.21.12-.36.2-.48.27.99.63,1.99,1.27,2.99,1.9-.05.08-.09.15-.14.23-.4-.16-.8-.33-1.19-.49-.04.06-.07.11-.11.17.62.66,1.24,1.31,1.87,2.04.02.07.02.07.02.07-.2-.07-.4-.15-.71-.28-.17-.05-.23-.05-.29-.04.02.08.05.15.07.23.63.71,1.27,1.42,1.89,2.25-.14.16-.26.21-.38.26-.07,0-.13-.03-.26-.14-.14-.09-.21-.11-.28-.13.04.1.08.19.12.29.51.99,1.01,1.99,1.52,2.98-.06.05-.12.09-.18.14-.11-.09-.22-.19-.6-.51.1.95.17,1.67.25,2.39-.07.02-.13.04-.2.06-.16-.22-.32-.44-.51-.7-.15.11-.29.21-.49.36-.26-.92-.51-1.79-.77-2.66h-.24c-.06.61-.13,1.21-.19,1.82-.12,0-.23.01-.35.02-.12-.99-.25-1.98-.37-2.98-.06,0-.11-.01-.17-.02-.05.13-.1.27-.2.56-.19-.66-.19-1.53-.53-1.68-1.14-.53-.98-1.87-1.8-2.55-.19-.15-.26-.46-.35-.71-.37-1.07-.86-1.18-1.59-.52.29.86.56,1.63.77,2.53-.94.07-1.76.2-2.4.84-.34-.44-.65-.81-.98-1.22-.04-.06-.07-.1-.1-.13.04.05.08.1.1.23-.03.34-.05.59-.07.85-.05,0-.1,0-.15,0-.21-.49-.41-.97-.62-1.46-.06.02-.13.04-.19.06.03.77.07,1.53.1,2.2.46.3.85.55,1.1.71.28-.38.55-.76.9-1.13.31.17.56.32.84.49.09-.93.61-1.17,1.41-.99.84,1.21.68,1.62-.61,2.09-.37.13-.58.69-.69.83.43.73.78,1.35,1.03,2.02-.21.21-.32.35-.42.49-.23.04-.46.07-.79.01-.62-.36-1.42-.27-1.42-1.2.22-.03.39-.02.67,0-.26-.39-.44-.67-.63-.95,0,.85-.59.69-1.05.62-.02.42-.04.75-.13,1.08-.21,0-.35,0-.54-.05-.11-.64-.17-1.22-.22-1.8-.05,0-.1,0-.16.01-.06.95-.13,1.9-.24,2.86-.13.15-.21.29-.28.42-.06.06-.12.12-.29.19-.18.05-.25.09-.31.13-1.47-.19-.49-1.19-.75-1.98-.76-.43-.78-1.15-.3-2.06.13-.25-.1-.79-.32-1.1-.25-.35-.93-.6-.92-.89,0-.46.43-.91.75-1.5-.47-.93-.36-1.35.55-2.22.72-.68.79-1.54.46-2.55,1.4.3,2.73.71,4.1,1.12.39-.77.3-1.51-.34-1.7-.35-.1-.7-.19-1.04-.32-.04-.05-.08-.05-.12-.05.04.03.09.06.13.15-.25,0-.52-.03-.75-.14-.93-.42-1.86-.86-2.78-1.3-.03.06-.07.11-.1.17.21.27.42.55.7.91-.29.04-.48.06-.66.08-1.34-1.58-1.66-1.71-2.73-1.24.15.38.45.78.39,1.1-.08.4-.39.84-.74,1.07-.91.6-1.19,1.55-1.26,2.46-.15,2.01-.13,4.03-.1,6.05.03,2.27.03,4.54.26,6.8.31,3.07.56,6.17,1.86,9.17.14-.35.25-.63.48-1.19.23.61.35,1.01.53,1.39.09.2.27.35.5.64-.06.25-.16.69-.26,1.13.06.04.12.08.18.11.44-.47.87-.95,1.31-1.42.05.04.1.07.15.11-.11.27-.21.53-.36.91.06.16.17.19.28.23.33-.12.66-.23.99-.35.05.08.09.16.14.24-.36.27-.73.55-1.34,1,.98-.06,1.68-.16,2.37-.13.62.02,1.34-.13,1.87.51-1.16.08-2.18.16-3.2.23,0,.12,0,.25,0,.37,2.4.45,4.81.89,7.21,1.34-.01.13-.03.25-.04.38-1.07-.06-2.14-.06-3.2-.19-7.77-.99-15.53-1.07-23.3-.04-1.12.15-2.27.12-3.4.18-.01-.11-.02-.23-.03-.34,2.42-.45,4.84-.9,7.38-1.38-1.04-.83-2.18-.57-3.3-.64,1.15-.79,2.48-.27,3.84-.51-.4-.34-.71-.61-1.16-.99,1.06.11,1.95.2,3,.31-.09-.81-.18-1.55-.27-2.39.19.08.34.14.56.23.07-.34.15-.66.26-1.17.22.47.36.79.6,1.3.23-.6.48-1,.53-1.43.26-2.05,1.06-3.96,1.02-6.12-.06-2.97.41-5.95.57-8.93.09-1.72.1-3.45.01-5.17-.03-.59-.45-1.18-.74-1.74-.43-.82-.9-1.61-1.39-2.47.26-.12.5-.24.75-.35.01-.08.03-.16.04-.23-.37-.1-.76-.31-1.12-.28-1.43.12-3.22,2.77-2.8,4.14.09.28.37.5.51.77.27.53.51,1.08.69,1.73-.86.71-1.65,1.29-2.41,1.9-.15.12-.27.34-.31.54-.15.67-.27,1.35-.39,2.02,0,0,0-.01-.04.04-.08.68,0,1.35-.17,1.94-.22.76-.03,1.12.74,1.26.03.14.04.25.05.36.16.61.44,1.29-.43,1.57-.7.22-1.51-.53-1.73-1.57-.67-.01-1.44.04-1.44-.58-.66-.5-1.48-.93-1.43-1.13.16-.62.65-1.15,1.01-1.71.07.05.14.1.21.14-.21-.5-.41-1.01-.55-1.35-.48-.17-1.21-.26-1.23-.45-.07-.53.15-1.1.37-1.63-.5-1.04-.39-1.49.89-2.56-.3-.29-.58-.57-.97-.95-1.27,2.03-2.45,3.91-3.61,5.77,0,0-.08-.09-.22-.26-.2,1.05-.39,2.04-.57,3.02-.12-.02-.24-.03-.36-.05v-1.79c-.1-.02-.21-.03-.31-.05-.25.95-.51,1.9-.76,2.86-.07,0-.14,0-.2,0-.04-.23-.09-.46-.1-.81.03-.28.03-.44.03-.6-.04,0-.08,0-.12-.01-.05.15-.1.3-.15.44-.17.39-.34.79-.51,1.18-.07-.01-.14-.02-.21-.03.07-.71.14-1.43.23-2.34-.34.38-.56.64-.78.89-.05-.02-.1-.04-.16-.05.3-.82.61-1.63,1.02-2.73-.66.36-1.07.58-1.49.8-.04-.05-.08-.09-.11-.14.99-1.2,1.98-2.39,3.16-3.81-.62.18-.97.28-1.32.38-.04-.06-.08-.12-.12-.17,1.18-.93,2.35-1.86,3.53-2.78l-.09-.19c-.69.3-1.38.61-2.07.91-.04-.08-.09-.16-.13-.24.98-.62,1.97-1.23,2.98-1.87-.12-.14-.23-.28-.45-.54,1.54-.89,3.04-1.76,4.66-2.67.41-.13.69-.21,1.09-.33-.35-.17-.55-.26-.75-.35,0,0,.09-.02.16-.05.12-.04.14-.07.22-.1.32,0,.57-.03.9-.04.35.01.62.01,1.08.01-.3-.19-.41-.26-.69-.44h3.12c-.1-.23-.16-.34-.13-.43,1.7.64,3.32,1.25,4.96,1.88.02.03.04.04.06.04-.03-.02-.05-.04-.06-.12-1.5-2.38-2.57-2.81-5.28-2.14-.34.02-.61.04-.89.04-.03-.03-.08-.08-.12-.1-.2,0-.35.04-.53.03-.27.05-.52.15-.85.24-.29,0-.51,0-.75-.01-.08-.05-.13-.04-.23.01-.18.04-.29.08-.46.13-.2.09-.35.18-.5.26-1.53-.27-2.46.76-3.52,1.58-.44.34-1.01.53-1.53.79v-.64c-.44.61-.79,1.08-1.16,1.59-.09-.22-.14-.36-.26-.68-.67,1.16-1.24,2.15-1.86,3.23-.13-.21-.23-.39-.42-.7-.49.79-.94,1.5-1.45,2.33.02-.4.04-.69.05-.9-.62.56-1.25,1.12-1.87,1.68-.11-.02-.22-.05-.34-.07.05-.67.1-1.34.16-2.04-.17.06-.42.16-.94.35.69-.85,1.22-1.52,1.81-2.25-.32-.09-.52-.15-.96-.28,1.12-.83,2.09-1.55,3.11-2.31-.26-.12-.45-.21-.82-.37,1.1-.42,2.04-.78,3.25-1.25-.56-.06-.8-.09-1.05-.12-.01-.06-.03-.11-.04-.17.97-.28,1.95-.56,3.01-.86-.25-.09-.44-.16-.73-.27.24-.09.41-.14.57-.21.57-.25,1.46.31,1.73-.78.04-.17.86-.17,1.32-.2.59-.03,1.19,0,1.81-.15-.28-.09-.56-.18-.84-.27,0-.05,0-.1,0-.14.86,0,1.73,0,2.74.03.45.05.74.07,1.04.11,0,.02.06.03.06.03,0,0-.08-.04-.09-.08-.01-.04-.02-.12,0-.15.02-.02.06-.07.14-.07,1.94.48,3.79,1.03,5.38,2.18.08.05.19.06.3.12.06.03.1.02.14.02-.03-.04-.07-.08-.11-.18-1.12-2.29-3.56-1.96-5.37-2.83-.48-.23-1.02-.34-1.54-.45-.29-.06-.61,0-.92,0-.63,0-1.27-.1-1.87,0-1.07.2-2.12.53-3.26.79-.07-.01-.06,0-.06,0,0,0,0-.1.05-.16.06-.11.06-.16.06-.21-.07.03-.14.05-.21.08-1.4.62-2.84,1.17-3.8,2.49-.13.18-.67.03-1,.12-.7.21-1.38.47-2.07.72-.2.07-.4.17-.79.33.21-.38.31-.57.5-.84.14-.2.2-.32.26-.43-.04-.03-.07-.05-.11-.08-.12.1-.24.2-.36.3-.12.01-.24.02-.52.05.33-.38.56-.64.87-.99-.28-.04-.48-.07-1.03-.14,1.17-.82,2.13-1.49,3.29-2.31-.69.09-1.16.15-1.62.21-.02-.08-.04-.15-.06-.23,1.23-.41,2.45-.81,3.78-1.26-.28-.14-.46-.23-.73-.37,1.17-.29,2.25-.65,3.36-.79,1.06-.13,2.15-.03,3.3-.03-.33-.17-.63-.33-.93-.49,0-.05,0-.1,0-.15.35.04.7.06,1.04.12,1.36.27,2.71.56,4.06.82.36.07.73.07,1.17.06.06-.04.06-.04.07.05.11.1.21.11.35.17.38.79.9,1.25,1.85,1.17.17-1.3-.74-2.08-1.43-2.94-.6-.74-1.25-1.44-1.92-2.21.54-.6.93-1.03,1.32-1.46.13.17.27.34.45.63.43.76.69.63.92.04.19.19.35.34.47.55-.03.84.48,1.41,1.01,1.25.1.27.18.48.18.71-.2.49-.32.95-.45,1.41.45.07.9.14,1.35.21.06,0,.13-.02.23.02.47,1.15.9,2.25,1.34,3.35.06-.02.13-.04.19-.06-.24-.88-.47-1.76-.7-2.72.05-.86.39-1.36,1.25-1.33.11.26.19.46.37.91,0-1.17.08-2.09-.02-2.99-.13-1.14-.39-2.27-.6-3.47-.02-.16-.04-.25.01-.36.05-.8.03-1.57,0-2.35M63.75,39.52l-.05-.02s.04.06.06.19c.04.06.08.11.14.31.62.9,1.24,1.81,1.86,2.71.04-1.39-.88-2.17-1.8-3.08-.06-.02-.12-.04-.21-.12M32.59,31.67c.03-.07.05-.15.08-.22-.11.03-.22.06-.45.15,0,.07.02.15.03.22.08-.04.16-.07.34-.15M33.01,37.85c.04-.07.07-.14.11-.21-.12.04-.24.07-.46.13-.06.02-.12.06-.29.18-.05.14-.11.29-.16.43.17-.1.35-.19.59-.34.05-.04.08-.08.22-.19M59.59,29.97c-.36.58-.73,1.17-1.16,1.81.01.05.03.1.04.16.04-.04.08-.09.24-.19.38-.56.75-1.13,1.18-1.76-.05-.02-.11-.03-.3-.02M52.58,32.26l.1.12s.03-.07.03-.08c-.04-.04-.09-.08-.12-.26-.25-.88-.66-1.64-1.53-2.08.13,1,.88,1.57,1.52,2.3M62.96,34.41c.62-.03,1.23-.06,1.85-.09.02-.11.04-.22.05-.32-.35-.2-.7-.41-1.06-.59-.02,0-.17.25-.43.38-.42-.07-.89-.06-1.27-.23-1.68-.76-2.79.08-3.81,1.25-.22.25-.37.57-.6.93,1.74-.6,3.3-1.13,4.91-1.59.04.07.08.15.08.26.03,0,.06.01.27,0M64.31,30.99l.69-.28-.2-.37c-.22.15-.43.29-.81.43-2.66-.15-4.63.79-5.25,2.55,1.8-.86,3.31-2.3,5.56-2.32M47.31,38.72c.48-.62,1.04-1.2,1.07-2.17-1.9.74-3.64,1.43-5.44,2.13.48.55.81.93.95,1.09,1.16-.36,2.21-.68,3.42-1.05M57.13,64.97c-.03-.47,0-1.34-.09-1.35-.87-.12-1.35.51-1.76,1.17-.07.11.05.33.09.56.27-.15.46-.26.68-.39.26.68.6.72,1.08.01M55.2,61.75c.17.04.35.09.55.14-.18.3-.32.53-.47.79,1.31.08,1.63-.47,1.09-2.03-.46.39-.87.74-1.17,1.1M46.29,40.79c.22-.44.45-.87.67-1.31-.13-.07-.27-.14-.4-.22-.58.96-1.17,1.92-1.75,2.88.15.09.29.18.44.28.32-.5.64-1.01,1.05-1.63M67.28,42.2c-.44-.52-1.42-.79-.83-1.86-.38-.2-.76-.4-1.36-.72.43.87.69,1.5,1.04,2.08.22.37.57.67.86,1,.12-.12.23-.25.29-.5M55.75,59.8c.56-.27,1.36-.35,1.13-1.56-.79.48-1.44.87-2.09,1.26.03.08.06.16.09.24.25.04.5.07.88.06M56.71,56.44c.05-.25.09-.5.17-.95-.75.29-1.26.49-1.93.75.39.15.6.24.87.34-.16.28-.29.49-.41.71.08.08.17.16.25.24.32-.32.65-.64,1.05-1.08M55.37,54.71c.86.01,1.36-.32,1.26-1.28-.9.02-1.49.56-1.26,1.28M43.63,44.97c.27-.18.55-.36.87-.57-.7-.13-1.27-.23-1.88-.34-.03.54-.26,1.28,1.02.91M55.91,39.41q.94-.19.94-.94c-.99-.07-1.16.07-.94.94M44.01,48.6c.34-.04.68-.09,1.01-.13.02-.09.03-.18.05-.27-.39-.19-.79-.39-1.18-.58-.09.05-.18.1-.27.16.08.29.16.57.38.83M55.91,51.59c-.31.21-.61.42-.92.62.05.1.09.2.14.31.41-.1.84-.16,1.22-.33.12-.05.13-.38.18-.59-.16-.02-.33-.05-.62-.01M57.44,29.69v.49c.05,0,.1.01.15.02.27-.87.55-1.74.82-2.61l-.26-.08c-.22.68-.44,1.36-.72,2.18M47.19,40.42c-.19.69-.72,1.39.14,2.21,0-.87,0-1.55-.14-2.21M34.94,32.5c-.06-.06-.13-.13-.19-.19-.06.13-.12.27-.19.4.1-.03.2-.06.38-.21M32.12,39.89c-.05-.08-.1-.17-.16-.25-.05.06-.11.12-.16.18.07.05.14.11.32.07M34.99,38.94c0,.12.01.25.02.37.05,0,.1-.01.16-.02-.02-.15-.04-.31-.17-.35M46,29.75c.06,0,.12-.02.19-.02-.08,0-.16-.02-.19.02M34.73,35.7c-.11,0-.22,0-.33.01.07.03.15.06.33-.01M60.72,24.63c-.01-.05-.03-.1-.04-.15,0,.07-.01.14.04.15M60.38,63.86c.03.07.06.13.09.2,0-.1,0-.19-.09-.2M60.67,65.18s-.05.04-.05.06c0,.02.03.04.05.06.02-.02.04-.04,0-.12M50.1,65.06s-.07-.03-.1-.05c0,.04.01.08.1.05M67.86,20.02s-.03.07-.04.1c.04-.01.08-.02.04-.1M62.87,15.83s-.03.07-.04.1c.04-.01.07-.02.04-.1M73.8,42.27s.09,0,.13.01c-.02-.02-.04-.04-.13-.01M73.15,40.48s-.09-.03-.14-.05c.02.05.03.09.14.05M58.25,32.27s.02-.02,0,0Z"/>
      <path class="cls-11" d="M52.06,26.96c-.06.01-.13.04-.19.03-.45-.06-.9-.14-1.35-.21.12-.46.25-.93.48-1.46.25-.06.44-.11.52-.03.24.21.43.47.66.75.06.04.1.03.14.02-.04-.03-.08-.07-.12-.17-.23-.59-.46-1.12-.67-1.67.03-.03.08-.08.13-.07.09,0,.13,0,.15-.02.02-.02.04-.06.04-.08-.18-.84-1.29-1.24-1.09-2.31,0-.05-.02-.13-.03-.2-.2-.22-.38-.39-.56-.55-.21-.2-.42-.4-.62-.68,0-.08.03-.13.03-.13.28.07.56.14.83.21.05-.1.11-.21.16-.31-1.37-.79-2.75-1.59-4.14-2.39.09-.04.26-.13.36-.19-.63-.37-1.26-.75-1.89-1.13-.01-.11-.03-.21-.04-.32.95-.26,1.9-.51,2.88-.77-.02-.04-.15-.31-.28-.59.06-.08.12-.15.18-.23.7.59,1.4,1.19,2.17,1.87.15.14.23.18.31.22-.02-.14-.05-.29-.07-.43-.04-.19-.08-.37-.19-.86.35.45.56.65.68.89.65,1.27,2.03,2.07,2.31,3.58,0,.03.18.02.34.09.13.16.2.27.28.45.04.22.07.37.07.6-.03.53-.09.99-.02,1.44.19,1.3.43,2.59.65,3.88-.84.04-1.18.54-1.28,1.35-.3-.31-.54-.66-.94-1.24.08.42.1.54.12.66M53,20.59s.03.06.06.08c0,0,.06-.02.06-.03,0-.12,0-.23-.01-.35-.04.06-.08.12-.1.31Z"/>
      <path class="cls-11" d="M47.91,22.14c-.36.49-.75.92-1.3,1.52.68.77,1.32,1.47,1.92,2.21.7.86,1.61,1.64,1.43,2.94-.95.08-1.47-.37-1.88-1.24-.15-.14-.24-.17-.33-.19,0,0,0,0,0,0,.08-.02.16-.04.33-.04.25.07.42.11.63.2.16.04.28.04.56.04-.24-.15-.34-.22-.49-.32-.19-.1-.33-.16-.48-.22v-.63c-.61-.39-1.35-.87-2.19-1.4.29-.19.41-.27.58-.38-.61-.2-1.17-.38-1.84-.6.29-.12.48-.19.76-.31-.42-.18-.74-.32-1.07-.45.07-.11.14-.23.29-.32.27.02.45.02.64.02,0-.06,0-.12.01-.18-.14-.04-.28-.09-.42-.13-1.38-.11-2.75-.21-4.15-.32.09-.07.21-.16.57-.43-1.3.07-2.35.12-3.39.18-.01-.07-.02-.15-.04-.22.21-.14.42-.27.64-.41-.23-.11-.45-.2-.83-.37.59-.14,1-.24,1.65-.4-.58-.06-.9-.09-1.22-.13-.01-.09-.03-.19-.04-.28,1.43-.22,2.86-.44,4.34-.67-.23-.2-.51-.44-.96-.82,1.58-.22,2.35,1.13,3.68,1.49-.22-.48-.37-.81-.52-1.14l.25-.22c.94,1.05,1.88,2.11,2.84,3.22M45.8,20.59c-.05,0-.11,0-.16.01.04.07.08.14.18.31.08.01.17.02.25.04-.06-.09-.12-.18-.26-.36M46.11,23.91c-.08-.02-.17-.03-.25-.05.05.04.1.08.25.05Z"/>
      <path class="cls-8" d="M69.55,34.86c.29,0,.61.01.92.1.61.19,1.21.42,1.81.62.18.06.39.06.56.14.3.14.63.52.85.45.68-.2,1.57-.24,1.67-1.32.68.18,1.35.43,2.02.68l-.03.19c-.19-.01-.38-.03-.69-.08-.21-.03-.3-.02-.39-.02l.21.25c.98.69,1.97,1.39,2.9,2.04-1.01,1.39.92,1.69.68,2.69-.2-.09-.42-.19-.67-.31-.04.32-.07.57-.18.81-.12,0-.16,0-.19.01,0,.02.01.06.02.07.04,0,.09,0,.13,0,.07.4.15.8.24,1.31-.25-.15-.45-.27-.66-.38-.41-.23-.84-.67-1.24-.66-.86.03-.9-.56-1.14-1.09-.28-.62-.62-1.22-1.06-2.05-.16.47-.23.69-.35,1.07-.55-.97-1.04-1.84-1.54-2.72-.98.64-1.26-.4-1.84-.7-.66-.35-1.33-.68-2.02-1.08Z"/>
      <path class="cls-11" d="M46.84,50.79c-.11-.13-.12-.24-.19-.45-.2-1.13-.34-2.16-.47-3.18,0,0,0,.01.06,0,.46.12.86.05.82-.42-.07-.9,0-1.49.86-2.18.56-.45.9-.89,1.64-.78.71,1.12.54,1.59-.68,2.07-.5.2-.78.51-.4,1.12.55.9.34,1.52-.54,1.86.6,1.66.34,2.17-1.1,1.96Z"/>
      <path class="cls-11" d="M66.32,48.48c.05.89.85.8,1.41,1.13-.38.67-.72,1.39-1.66.97-.2,1.28-.95,2.04-1.8,1.79-.9-.26-.49-1-.47-1.67.06-.22.14-.36.31-.46.81-.07.66-.59.63-1.05.14,0,.28,0,.51.06.14.26.2.44.25.58.3-.48.56-.91.83-1.34Z"/>
      <path class="cls-7" d="M64.24,24.8c-.16-.2-.24-.4-.34-.65.29-.12.55-.23.57-.24.25-.51.4-.81.62-1.12.46.09.85.2,1.24.26.35.05.71.05,1.08.23-.7.17-1.41.33-2.27.54.31.17.49.27.76.42-.6.21-1.09.38-1.66.55Z"/>
      <path class="cls-7" d="M76.66,29.59c-.3,0-.52-.02-.84-.04.12-.25.21-.43.3-.67.74.16,1.46.38,2.19.6-.03.11-.06.21-.09.32-.5-.07-.99-.14-1.57-.2Z"/>
      <path class="cls-8" d="M74.91,34.53c-.68.07-1.33.04-1.37-.95.55.08,1.1.23,1.77.41-.18.21-.29.34-.4.54Z"/>
      <path class="cls-7" d="M75.77,45.24c.08-.1.21-.15.37-.25.52.52,1,1.09,1.48,1.66l-.3.28c-.5-.54-1-1.09-1.55-1.69Z"/>
      <path class="cls-11" d="M48.95,21.94c.12.29.21.53.3.83-.17.7-.43.82-.85.13.02-.3.14-.53.12-.77-.02-.33-.14-.66-.05-1.05.15.27.29.54.48.86Z"/>
      <path class="cls-7" d="M64.89,16.29c-.13-.13-.23-.34-.34-.6.31-.06.63-.06,1.08-.06-.29.24-.5.42-.74.67Z"/>
      <path class="cls-3" d="M61.82,19.39c.09-.13.25-.26.47-.4-.09.13-.24.27-.47.4Z"/>
      <path class="cls-11" d="M68.64,49.62c.04-.13.14-.27.32-.41-.04.13-.14.26-.32.41Z"/>
      <path class="cls-11" d="M49.53,20.26c-.09-.04-.16-.11-.24-.18.08,0,.16,0,.26.06.02.05-.01.09-.03.12Z"/>
      <path class="cls-11" d="M63.23,50.93s.07-.08.19-.12c0,.04-.07.08-.19.12Z"/>
      <path class="cls-10" d="M66.17,19.16s-.06.05-.16.05c0-.04.07-.07.16-.05Z"/>
      <path class="cls-10" d="M75.15,42.78s.02,0,.01,0-.01,0-.01,0Z"/>
      <path class="cls-10" d="M39.18,30.58s-.03.09-.04.13c0-.03-.01-.07.02-.11.04-.01.03-.02.03-.02Z"/>
      <path class="cls-7" d="M62.59,34.11c.28-.09.58-.13.92-.25.13-.2.28-.46.3-.45.36.18.71.39,1.06.59-.02.11-.04.22-.05.32-.62.03-1.23.06-1.95.08-.1-.01-.13-.04-.13-.04-.04-.07-.08-.15-.15-.26Z"/>
      <path class="cls-7" d="M43.56,44.98c-1.21.36-.98-.39-.94-.92.61.11,1.18.22,1.88.34-.32.21-.59.39-.94.58Z"/>
      <path class="cls-7" d="M43.95,48.62c-.15-.27-.23-.56-.31-.84.09-.05.18-.1.27-.16.39.19.79.39,1.18.58-.02.09-.03.18-.05.27-.34.04-.68.09-1.08.15Z"/>
      <path class="cls-11" d="M49.77,23.41c1.03-.27.63.69.97,1.12-.49.29-1-.28-.97-1.12Z"/>
      <path class="cls-6" d="M45.58,33.79c.25-.1.5-.19.77-.24.02.05.03.04-.04.03-.16.06-.25.14-.34.22,0,0,0,0-.06-.01-.16,0-.25,0-.34,0,0,0,0,0,0,0Z"/>
      <path class="cls-4" d="M43.94,34.83c.2-.06.46-.11.78-.1-.21.07-.46.09-.78.1Z"/>
      <path class="cls-4" d="M32.72,38.09c-.17.1-.35.19-.52.29.05-.14.11-.29.28-.41.16.06.2.09.24.12Z"/>
      <path class="cls-4" d="M34.91,32.56c-.14.09-.24.12-.34.15.06-.13.12-.27.19-.4.06.06.13.13.15.25Z"/>
      <path class="cls-4" d="M32.06,39.94c-.12,0-.19-.06-.26-.11.05-.06.11-.12.16-.18.05.08.1.17.1.3Z"/>
      <path class="cls-4" d="M35.04,38.89c.08.1.1.25.12.41-.05,0-.1.01-.16.02,0-.12-.01-.25.04-.42Z"/>
      <path class="cls-4" d="M35.12,49.12c0-.19.05-.34.1-.48.04,0,.08,0,.12.01,0,.16,0,.32-.04.53-.07.03-.1,0-.18-.06Z"/>
      <path class="cls-3" d="M45.97,29.72c.05-.02.13,0,.21,0-.06,0-.12.02-.21,0Z"/>
      <path class="cls-4" d="M31.77,32.97c.07-.15.19-.25.31-.35.04.03.07.05.11.08-.06.12-.12.23-.23.38-.08,0-.11-.03-.19-.11Z"/>
      <path class="cls-4" d="M75.36,45.17c-.08-.06-.12-.16-.16-.26.07.02.14.05.24.11,0,.06-.01.09-.08.15Z"/>
      <path class="cls-3" d="M65.96,43.38c-.04-.05-.08-.1-.12-.15.03.03.06.06.1.13.01.03.02.03.02.03Z"/>
      <path class="cls-4" d="M32.75,37.75c.12-.04.24-.07.36-.11-.04.07-.07.14-.2.2-.11-.04-.14-.07-.17-.09Z"/>
      <path class="cls-4" d="M34.67,35.75c-.13.02-.2,0-.28-.04.11,0,.22,0,.28.04Z"/>
      <path class="cls-3" d="M60.69,24.66s-.02-.11-.01-.18c.01.05.03.1.01.18Z"/>
      <path class="cls-6" d="M44.13,33.93c.09-.07.21-.11.38-.15.06,0,.06,0,.05.05,0,.09,0,.12,0,.16,0,0,0,0-.06-.02-.15,0-.23.02-.32.04,0,0-.04-.05-.07-.08Z"/>
      <path class="cls-3" d="M52.57,32.19s.1.07.14.12c0,0-.02.05-.03.08-.03-.04-.07-.08-.1-.16,0-.04,0-.04-.01-.03Z"/>
      <path class="cls-4" d="M60.42,63.82c.04.05.05.15.05.24-.03-.07-.06-.13-.05-.24Z"/>
      <path class="cls-4" d="M32.33,31.54c.11-.03.22-.06.33-.09-.03.07-.05.15-.17.2-.11-.05-.14-.08-.17-.11Z"/>
      <path class="cls-4" d="M60.7,65.22c0,.05-.01.07-.03.09-.02-.02-.05-.04-.05-.06,0-.02.03-.04.08-.03Z"/>
      <path class="cls-4" d="M50.07,65.09s-.05-.04-.06-.08c.03.02.07.03.06.08Z"/>
      <path class="cls-4" d="M62.2,64.81c-.05.02-.16-.02-.23-.1.08-.02.13.01.23.1Z"/>
      <path class="cls-3" d="M59.75,29.98s.08,0,.11.05c-.03.03-.08-.02-.11-.05Z"/>
      <path class="cls-4" d="M47.78,27.47c.08-.06.17-.04.28.05-.07.06-.17.04-.28-.05Z"/>
      <path class="cls-6" d="M58.16,26.79l-.02.07s0-.04.02-.05c.01-.01,0-.02,0-.02Z"/>
      <path class="cls-6" d="M58.36,26.59c-.02.07-.06.13-.15.19-.05,0-.05,0-.04.01.02-.06.04-.13.11-.22.04-.03.07,0,.09.02Z"/>
      <path class="cls-6" d="M58.78,25.01c-.02.06-.06.1-.1.14-.01-.05-.02-.1,0-.19.03-.03.08.02.11.04Z"/>
      <path class="cls-4" d="M70.7,21.8s-.06.03-.12.01c-.02-.03.08-.02.12-.01Z"/>
      <path class="cls-4" d="M39.12,30.33c.05-.05.12-.08.19-.1,0,.05,0,.09-.06.16-.05.02-.1-.03-.13-.06Z"/>
      <path class="cls-3" d="M59.56,21.39s-.04,0-.03,0c.03,0,.03,0,.03,0Z"/>
      <path class="cls-3" d="M64.77,21.21s-.05.08-.08.12c0-.04-.01-.08.02-.13.04-.01.05,0,.06,0Z"/>
      <path class="cls-3" d="M59.57,21.4c.02-.06.04-.13.1-.23.04-.03.09.01.11.03-.02.07-.07.12-.16.18-.05,0-.04.02-.04.02Z"/>
      <path class="cls-4" d="M67.9,20.06s-.04.06-.08.07c.01-.03.03-.07.08-.07Z"/>
      <path class="cls-4" d="M62.91,15.86s-.04.06-.07.07c.01-.03.03-.07.07-.07Z"/>
      <path class="cls-4" d="M63.4,15.65c-.05.02-.16-.02-.23-.1.09-.01.13.02.23.1Z"/>
      <path class="cls-7" d="M62.77,34.4s-.05,0-.06-.02c.02-.02.05,0,.06.02Z"/>
      <path class="cls-4" d="M74.28,42.64c-.08-.03-.1-.11-.13-.19.06,0,.12-.01.22.02.02.07-.02.1-.1.17Z"/>
      <path class="cls-4" d="M73.84,42.25c.05,0,.07.02.09.04-.04,0-.09,0-.09-.04Z"/>
      <path class="cls-4" d="M73.1,40.53c-.06,0-.08-.05-.09-.09.05.02.09.03.09.09Z"/>
      <path class="cls-6" d="M63.77,39.57c.06.02.12.04.22.11,0,.07-.02.09-.08.15-.08-.02-.12-.08-.15-.19,0-.06.01-.06.01-.06Z"/>
      <path class="cls-6" d="M63.76,39.59s-.04-.05-.06-.08c.02,0,.04.01.06.05.01.02,0,.03,0,.04Z"/>
      <path class="cls-4" d="M32.86,37.86c0,.09-.03.14-.11.2-.07,0-.11-.04-.2-.13-.01-.11.04-.14.15-.18.07.01.1.04.16.11Z"/>
      <path class="cls-3" d="M65.36,37.78s-.08-.06-.13-.09c.04,0,.08,0,.12.05,0,.04,0,.04,0,.03Z"/>
      <path class="cls-5" d="M53.16,35.79s.05.04.07.06c-.02,0-.03-.01-.06-.04,0-.02-.01-.02-.02-.01Z"/>
      <path class="cls-6" d="M44.58,33.79c.04-.05.09-.07.17-.01.03.02.03.01-.02,0-.09,0-.12,0-.16,0,0,0,0,0,0,0Z"/>
      <path class="cls-3" d="M52.2,33.16s.08.06.11.1c-.04,0-.08.01-.14-.02-.02-.04.01-.07.03-.08Z"/>
      <path class="cls-4" d="M76.34,33c-.06-.03-.08-.1-.11-.17.05,0,.09-.01.18.01.02.06,0,.09-.07.16Z"/>
      <path class="cls-3" d="M58.57,31.79c-.02.07-.05.11-.09.15-.01-.05-.03-.1,0-.19.03-.03.08.01.1.03Z"/>
      <path class="cls-4" d="M32.45,31.67c-.05.08-.12.12-.2.16,0-.07-.02-.15.03-.26.08,0,.11.02.17.1Z"/>
      <path class="cls-3" d="M46.37,31.19s.07.05.07.05c0,0-.05-.01-.06-.03,0-.02-.01-.02-.02-.01Z"/>
      <path class="cls-4" d="M52.99,20.53c.03-.12.07-.18.11-.24,0,.12.01.23.01.35,0,.01-.05.04-.06.03-.02-.02-.04-.05-.07-.14Z"/>
      <path class="cls-4" d="M50,16.18c.07.1.1.24.12.39-.08-.04-.15-.08-.25-.19.01-.09.04-.12.13-.2Z"/>
      <path class="cls-4" d="M50.76,21.74c-.08.01-.1-.03-.04-.12.03-.02.05.07.04.12Z"/>
      <path class="cls-3" d="M52.19,25.98s.09.06.13.09c-.04,0-.09.01-.14-.02-.01-.04,0-.06,0-.07Z"/>
      <path class="cls-4" d="M45.04,22.72c.19-.01.33.03.48.08,0,.06,0,.12-.01.18-.19,0-.37,0-.59-.05,0-.08.04-.12.12-.21Z"/>
      <path class="cls-4" d="M45.88,20.69c.06.09.12.18.19.27-.08-.01-.17-.02-.25-.12,0-.08.06-.15.06-.15Z"/>
      <path class="cls-4" d="M46.06,23.94c-.1,0-.15-.04-.2-.09.08.02.17.03.2.09Z"/>
      <path class="cls-4" d="M45.78,20.79c-.07-.04-.11-.11-.15-.18.05,0,.11,0,.2.03.04.05-.02.12-.05.15Z"/>
      <path class="cls-4" d="M76.52,35.82c-.11-.03-.18-.12-.25-.2.09,0,.18-.01.32.02.02.07,0,.1-.07.18Z"/>
      <path class="cls-4" d="M79.15,41.17s-.09,0-.13,0c0,0-.02-.04-.02-.07.04,0,.07-.02.13.02.02.05.02.04.03.04Z"/>
      <path class="cls-10" d="M46.36,31.01c-.14,0-.27-.03-.39-.05,0-.03,0-.07,0-.1.12,0,.25,0,.41.04.04.04,0,.09-.02.11Z"/>
      <path class="cls-10" d="M44.17,34.06c.11-.07.19-.08.34-.09-.08.13-.23.25-.38.37,0-.08,0-.16.03-.28Z"/>
      <path class="cls-10" d="M45.6,33.83c.06-.05.15-.05.31-.05-.05.04-.16.07-.31.05Z"/>
      <path class="cls-10" d="M46.04,33.8c.03-.09.12-.17.28-.23-.03.09-.12.17-.28.23Z"/>
      <path class="cls-10" d="M47,33.62s-.09,0-.11-.05c.03-.03.08.02.11.05Z"/>
      <path class="cls-10" d="M44.57,33.83c.04-.06.08-.07.16-.06.02.08,0,.14-.1.21-.06-.03-.07-.06-.07-.15Z"/>
    </g>
  </g>
</svg>